<svg xmlns="http://www.w3.org/2000/svg" viewBox="0 0 60 60"><g data-name="12-Box"><g data-name="&lt;Group&gt;"><path d="M56 19v34a6 6 0 0 1-6 6H10a6 6 0 0 1-6-6V19z" style="fill:#b46e5a" /><path d="M23.18 13.82A1.785 1.785 0 0 0 25 15h10a1.959 1.959 0 0 0 2-2V9h20a2.006 2.006 0 0 1 2 2v6a2.006 2.006 0 0 1-2 2H3a2.006 2.006 0 0 1-2-2v-6a2.006 2.006 0 0 1 2-2h20v4a2.36 2.36 0 0 0 .18.82z" style="fill:#a65d4e" /><path d="m32 15 5-5v3a1.959 1.959 0 0 1-2 2z" style="fill:#dce1eb" /><path d="M37 9v1l-5 5h-5l6-6z" style="fill:#f2f6fc" /><path d="M23.18 13.82 28 9h5l-6 6h-2a1.785 1.785 0 0 1-1.82-1.18z" style="fill:#dce1eb" /><path d="m28 9-4.82 4.82A2.36 2.36 0 0 1 23 13V9z" style="fill:#f2f6fc" /><path style="fill:#915041" d="M4 19h52v3H4zM4 17v-6a2.006 2.006 0 0 1 2-2H3a2.006 2.006 0 0 0-2 2v6a2.006 2.006 0 0 0 2 2h3a2.006 2.006 0 0 1-2-2zM38 29H22a1 1 0 0 1-1-1v3a1 1 0 0 0 1 1h16a1 1 0 0 0 1-1v-3a1 1 0 0 1-1 1z" /></g><g data-name="&lt;Group&gt;"><path d="M37 39v12a3 3 0 0 1-3 3h-8a3 3 0 0 1-3-3V39z" style="fill:#915041" /><path d="M37 37v2H23v-2a3 3 0 0 1 3-3h8a3 3 0 0 1 3 3z" style="fill:#f2f6fc" /><rect x="21" y="24" width="18" height="5" rx="1" ry="1" style="fill:#e3a76f" /></g><circle cx="26" cy="42" r="1" style="fill:#b46e5a" /><circle cx="30" cy="42" r="1" style="fill:#b46e5a" /><circle cx="34" cy="42" r="1" style="fill:#b46e5a" /><circle cx="32" cy="45" r="1" style="fill:#b46e5a" /><circle cx="28" cy="45" r="1" style="fill:#b46e5a" /><circle cx="26" cy="48" r="1" style="fill:#b46e5a" /><circle cx="30" cy="48" r="1" style="fill:#b46e5a" /><circle cx="34" cy="48" r="1" style="fill:#b46e5a" /><circle cx="28" cy="51" r="1" style="fill:#b46e5a" /><circle cx="32" cy="51" r="1" style="fill:#b46e5a" /><path d="M43 1v6a1.959 1.959 0 0 1-2 2h-6z" style="fill:#e9edf5" /><path d="M59 4v22a3 3 0 0 1-3 3H38a3 3 0 0 1-3-3V9h6a1.959 1.959 0 0 0 2-2V1h13a3 3 0 0 1 3 3z" style="fill:#ffe45c" /><path d="M56 0H43a.988.988 0 0 0-.385.078 1 1 0 0 0-.323.216L34.586 8H3a3 3 0 0 0-3 3v6a3 3 0 0 0 3 3v33a7.008 7.008 0 0 0 7 7h40a7.008 7.008 0 0 0 7-7V29.858A4 4 0 0 0 60 26V4a4 4 0 0 0-4-4zM25 14a1.117 1.117 0 0 1-.547-.125.958.958 0 0 0 .254-.168L28.414 10h2.172l-4 4zm-1-2.414V10h1.586zM33.414 10H34v4h-4.586zM42 3.414v3.574A.918.918 0 0 1 41 8h-3.586zM2 17v-6a1 1 0 0 1 1-1h19v3a2.916 2.916 0 0 0 3 3h9v2H3a1 1 0 0 1-1-1zm48 41H10a5.006 5.006 0 0 1-5-5V20h29v6a4 4 0 0 0 4 4h17v23a5.006 5.006 0 0 1-5 5zm8-32a2 2 0 0 1-2 2H38a2 2 0 0 1-2-2V10h5a2.916 2.916 0 0 0 3-3V2h12a2 2 0 0 1 2 2z" style="fill:#2b1505" /><path d="M32 30a1 1 0 0 0 0-2H22v-3h10a1 1 0 0 0 0-2H22a2 2 0 0 0-2 2v3a2 2 0 0 0 2 2zM34 33h-8a4 4 0 0 0-4 4v14a4 4 0 0 0 4 4h8a4 4 0 0 0 4-4V37a4 4 0 0 0-4-4zm-8 2h8a2 2 0 0 1 2 2v1H24v-1a2 2 0 0 1 2-2zm8 18h-8a2 2 0 0 1-2-2V40h12v11a2 2 0 0 1-2 2zM41.293 16.707a1 1 0 0 0 1.414 0l5-5a1 1 0 0 0-1.414-1.414L42 14.586l-1.293-1.293a1 1 0 0 0-1.414 1.414zM47.707 18.293a1 1 0 0 0-1.414 0L42 22.586l-1.293-1.293a1 1 0 0 0-1.414 1.414l2 2a1 1 0 0 0 1.414 0l5-5a1 1 0 0 0 0-1.414zM55 15h-6a1 1 0 0 0 0 2h6a1 1 0 0 0 0-2zM55 23h-6a1 1 0 0 0 0 2h6a1 1 0 0 0 0-2zM55 11h-3a1 1 0 0 0 0 2h3a1 1 0 0 0 0-2zM55 19h-3a1 1 0 0 0 0 2h3a1 1 0 0 0 0-2z" style="fill:#2b1505" /></g></svg>